<svg width="30" height="30" viewBox="0 0 30 30" fill="none" xmlns="http://www.w3.org/2000/svg">
<g clip-path="url(#clip0_210_63)">
<path fill-rule="evenodd" clip-rule="evenodd" d="M15.6233 29.9873C23.6185 29.6605 30 23.0755 30 15C30 6.71574 23.2843 0 15 0C6.71574 0 0 6.71574 0 15C0 23.2843 6.71574 30 15 30C15.0369 30 15.0737 29.9999 15.1106 29.9996C15.144 29.9999 15.1775 30 15.2111 30C15.3406 30 15.4792 29.9954 15.6233 29.9873ZM15.6233 29.9873C16.7717 29.9225 18.2665 29.6316 18.2665 29.6316L18.2505 28.7345C18.2505 28.7345 18.2657 26.9829 18.2657 25.3181C18.2657 24.1564 17.8674 23.3962 17.4201 23.0119C20.1946 22.7036 23.1063 21.6507 23.1063 16.8665C23.1063 15.507 22.6243 14.3951 21.826 13.5246C21.954 13.2095 22.3814 11.9432 21.702 10.2288C21.702 10.2288 20.6583 9.89409 18.2807 11.5056C17.2859 11.2294 16.2203 11.0912 15.163 11.0864C14.1039 11.0912 13.0384 11.2294 12.045 11.5056C9.66588 9.89409 8.62023 10.2288 8.62023 10.2288C7.94277 11.9435 8.37018 13.2098 8.49819 13.5246C7.70166 14.3951 7.21644 15.5068 7.21644 16.8665C7.21644 21.6388 10.1237 22.7073 12.8892 23.0216C12.5335 23.333 12.2117 23.8817 12.0986 24.6865C11.389 25.0053 9.58518 25.5548 8.47428 23.6518C8.47428 23.6518 7.81647 22.4565 6.56685 22.3683C6.56685 22.3683 5.35062 22.3526 6.48117 23.1253C6.48117 23.1253 7.29765 23.5083 7.86381 24.947C7.86381 24.947 8.59485 27.369 12.059 26.6165C12.0623 27.1817 12.067 27.6711 12.0706 28.0476C12.0737 28.3634 12.0759 28.5998 12.0759 28.7347L12.0789 29.6012C13.0485 29.8532 14.0639 29.9913 15.1106 29.9996C15.2822 29.9984 15.4531 29.9942 15.6233 29.9873Z" fill="#00FD8F"/>
</g>
<defs>
<clipPath id="clip0_210_63">
<rect width="30" height="30" fill="white"/>
</clipPath>
</defs>
</svg>
