<svg width="30" height="30" viewBox="0 0 30 30" fill="none" xmlns="http://www.w3.org/2000/svg">
<g clip-path="url(#clip0_210_65)">
<path fill-rule="evenodd" clip-rule="evenodd" d="M15 30C23.2843 30 30 23.2843 30 15C30 6.71574 23.2843 0 15 0C6.71574 0 0 6.71574 0 15C0 23.2843 6.71574 30 15 30ZM21.2582 21V16.3572C21.2582 13.8702 19.9302 12.7129 18.1583 12.7129C16.7285 12.7129 16.0898 13.4998 15.732 14.0508V12.9032H13.0399C13.0761 13.6632 13.0399 21 13.0399 21H15.7325V16.4782C15.7325 16.2361 15.7508 15.9951 15.8218 15.822C16.0167 15.3378 16.4593 14.8373 17.203 14.8373C18.1771 14.8373 18.5665 15.5799 18.5665 16.6681V21H21.2582ZM15.732 14.0508V14.0771H15.7144C15.7196 14.0687 15.7266 14.0594 15.732 14.0508ZM8.7 10.3988C8.7 9.60414 9.30234 9 10.2235 9C11.1449 9 11.711 9.60414 11.7286 10.3988C11.7286 11.1761 11.1449 11.7985 10.2058 11.7985H10.1879C9.28512 11.7985 8.7 11.1761 8.7 10.3988ZM11.5514 21H8.85996V12.9032H11.5514V21Z" fill="#00FD8F"/>
</g>
<defs>
<clipPath id="clip0_210_65">
<rect width="30" height="30" fill="white"/>
</clipPath>
</defs>
</svg>
