<svg width="42" height="42" viewBox="0 0 42 42" fill="none" xmlns="http://www.w3.org/2000/svg">
<path d="M6.88625 31.5C6.45227 31.4991 6.03636 31.3262 5.72966 31.0191C5.42295 30.7122 5.25046 30.296 5.25 29.862V29.638C5.25046 29.204 5.42295 28.7878 5.72966 28.4809C6.03636 28.1738 6.45227 28.0009 6.88625 28H35.1138C35.5478 28.0014 35.9636 28.1745 36.2705 28.4812C36.5773 28.7882 36.7503 29.204 36.7517 29.638V29.862C36.7509 30.2962 36.578 30.7122 36.271 31.0193C35.9639 31.3262 35.5479 31.4991 35.1138 31.5H6.88625ZM13.8862 22.75C13.4524 22.7486 13.0368 22.5755 12.7302 22.2686C12.4235 21.9616 12.2509 21.5458 12.25 21.112V20.888C12.2505 20.4536 12.4232 20.0373 12.7303 19.7302C13.0374 19.4232 13.4537 19.2505 13.888 19.25H35.1138C35.5476 19.2514 35.9632 19.4245 36.2698 19.7314C36.5764 20.0384 36.7491 20.4542 36.75 20.888V21.112C36.7486 21.5457 36.5759 21.9613 36.2693 22.268C35.9629 22.575 35.5474 22.7481 35.1138 22.75H13.8862ZM5.25 21C5.25 20.6538 5.35264 20.3156 5.54493 20.0277C5.73722 19.74 6.01053 19.5157 6.33031 19.3832C6.65007 19.2507 7.00194 19.2161 7.34141 19.2836C7.68087 19.3512 7.99269 19.5177 8.23744 19.7626C8.48218 20.0072 8.64885 20.3191 8.71638 20.6586C8.7839 20.9981 8.74925 21.35 8.61679 21.6697C8.48433 21.9894 8.26004 22.2628 7.97225 22.4551C7.68446 22.6475 7.34612 22.75 7 22.75C6.53587 22.75 6.09075 22.5655 5.76256 22.2374C5.43438 21.9093 5.25 21.4641 5.25 21ZM6.88625 14C6.45227 13.9991 6.03636 13.8262 5.72966 13.5191C5.42295 13.2121 5.25046 12.796 5.25 12.362V12.138C5.25046 11.704 5.42295 11.2879 5.72966 10.9809C6.03636 10.6738 6.45227 10.5009 6.88625 10.5H35.1138C35.5474 10.5018 35.9629 10.6751 36.2693 10.9819C36.5759 11.2887 36.7486 11.7043 36.75 12.138V12.362C36.7486 12.7957 36.5759 13.2113 36.2693 13.5181C35.9629 13.8249 35.5474 13.9982 35.1138 14H6.88625Z" fill="#F2F2EC"/>
</svg>
