<svg width="360" height="2746" viewBox="0 0 360 2746" fill="none" xmlns="http://www.w3.org/2000/svg">
<g clip-path="url(#clip0_220_18)">
<rect width="360" height="2746" fill="#1D1F21"/>
<path d="M197.4 170.425C212.552 200.955 228.221 220.597 231.459 244.723C234.696 268.848 225.372 297.457 215.789 327.134C206.336 357.024 196.753 388.195 181.731 399.083C166.709 409.972 146.248 400.792 129.413 386.06C112.578 371.329 99.2394 351.046 86.2894 325.212C73.2099 299.165 60.6484 267.567 59.2239 231.913C57.7994 196.258 67.7709 156.761 85.2534 126.871C102.865 97.1945 128.247 76.912 148.061 87.587C167.874 98.262 182.378 139.894 197.4 170.425Z" fill="#00FC8F"/>
<path d="M191.545 505.925C209.68 529.305 228.435 544.347 232.31 562.823C236.185 581.298 225.025 603.207 213.555 625.934C202.24 648.824 190.77 672.695 172.79 681.033C154.81 689.372 130.32 682.341 110.17 671.06C90.02 659.778 74.055 644.246 58.555 624.462C42.9 604.515 27.865 580.317 26.16 553.013C24.455 525.708 36.39 495.461 57.315 472.571C78.395 449.844 108.775 434.312 132.49 442.487C156.205 450.662 173.565 482.544 191.545 505.925Z" fill="#00FC8F"/>
<path d="M346.545 1005.92C364.68 1029.31 383.435 1044.35 387.31 1062.82C391.185 1081.3 380.025 1103.21 368.555 1125.93C357.24 1148.82 345.77 1172.69 327.79 1181.03C309.81 1189.37 285.32 1182.34 265.17 1171.06C245.02 1159.78 229.055 1144.25 213.555 1124.46C197.9 1104.52 182.865 1080.32 181.16 1053.01C179.455 1025.71 191.39 995.461 212.315 972.571C233.395 949.844 263.775 934.312 287.49 942.487C311.205 950.662 328.565 982.544 346.545 1005.92Z" fill="#00FC8F"/>
<path d="M176.976 1446.92C190.256 1470.31 203.989 1485.35 206.827 1503.82C209.664 1522.3 201.492 1544.21 193.093 1566.93C184.808 1589.82 176.409 1613.69 163.243 1622.03C150.077 1630.37 132.144 1623.34 117.389 1612.06C102.634 1600.78 90.9433 1585.25 79.5933 1565.46C68.1298 1545.52 57.1203 1521.32 55.8718 1494.01C54.6233 1466.71 63.3628 1436.46 78.6853 1413.57C94.1213 1390.84 116.367 1375.31 133.733 1383.49C151.098 1391.66 163.81 1423.54 176.976 1446.92Z" fill="#00FC8F"/>
<g filter="url(#filter0_b_220_18)">
<rect width="360" height="2693" fill="#1D1F21" fill-opacity="0.8"/>
</g>
</g>
<defs>
<filter id="filter0_b_220_18" x="-100" y="-100" width="560" height="2893" filterUnits="userSpaceOnUse" color-interpolation-filters="sRGB">
<feFlood flood-opacity="0" result="BackgroundImageFix"/>
<feGaussianBlur in="BackgroundImageFix" stdDeviation="50"/>
<feComposite in2="SourceAlpha" operator="in" result="effect1_backgroundBlur_220_18"/>
<feBlend mode="normal" in="SourceGraphic" in2="effect1_backgroundBlur_220_18" result="shape"/>
</filter>
<clipPath id="clip0_220_18">
<rect width="360" height="2746" fill="white"/>
</clipPath>
</defs>
</svg>
